<svg xmlns="http://www.w3.org/2000/svg" width="1200" height="650" viewBox="0 0 1200 650" role="img" aria-labelledby="title desc">
  <title id="title">GitHub Desktop razvojni tok</title>
  <desc id="desc">Vektorski prikaz Changes panela, commit poruke, istorije i push operacije.</desc>
  <rect width="1200" height="650" rx="24" fill="#ffffff"/>
  <rect x="2" y="2" width="1196" height="646" rx="22" fill="none" stroke="#d9e1ea" stroke-width="4"/>
  <rect x="2" y="2" width="1196" height="66" rx="22" fill="#f6f8fa"/>
  <path d="M2 68H1198" stroke="#d9e1ea" stroke-width="2"/>
  <circle cx="34" cy="34" r="8" fill="#d0d7de"/><circle cx="58" cy="34" r="8" fill="#d0d7de"/><circle cx="82" cy="34" r="8" fill="#d0d7de"/>
  <text x="118" y="42" font-family="Segoe UI,Arial" font-size="25" font-weight="700" fill="#24364b">GitHub Desktop</text>
  <rect x="24" y="92" width="305" height="526" rx="14" fill="#f8fafc" stroke="#d9e1ea" stroke-width="2"/>
  <text x="50" y="134" font-family="Segoe UI,Arial" font-size="24" font-weight="700" fill="#183b66">Changes</text>
  <text x="273" y="134" text-anchor="end" font-family="Segoe UI,Arial" font-size="18" fill="#65758a">3 files</text>
  <rect x="48" y="160" width="255" height="54" rx="9" fill="#eaf3ff" stroke="#9fc5f8"/>
  <text x="68" y="193" font-family="Segoe UI,Arial" font-size="17" fill="#24364b">M  ReservationService.cs</text>
  <rect x="48" y="224" width="255" height="54" rx="9" fill="#fff" stroke="#e0e6ed"/>
  <text x="68" y="257" font-family="Segoe UI,Arial" font-size="17" fill="#24364b">M  ReservationTests.cs</text>
  <rect x="48" y="288" width="255" height="54" rx="9" fill="#fff" stroke="#e0e6ed"/>
  <text x="68" y="321" font-family="Segoe UI,Arial" font-size="17" fill="#24364b">M  README.md</text>
  <text x="50" y="388" font-family="Segoe UI,Arial" font-size="16" font-weight="600" fill="#44566c">Summary</text>
  <rect x="48" y="402" width="255" height="50" rx="8" fill="#fff" stroke="#b9c4d0"/>
  <text x="62" y="433" font-family="Segoe UI,Arial" font-size="15" fill="#2d4056">Add reservation overlap rule</text>
  <text x="50" y="482" font-family="Segoe UI,Arial" font-size="16" font-weight="600" fill="#44566c">Description</text>
  <rect x="48" y="496" width="255" height="62" rx="8" fill="#fff" stroke="#b9c4d0"/>
  <text x="62" y="523" font-family="Segoe UI,Arial" font-size="14" fill="#65758a">Protects conflicting terms</text>
  <rect x="48" y="570" width="255" height="34" rx="7" fill="#0969da"/>
  <text x="176" y="593" text-anchor="middle" font-family="Segoe UI,Arial" font-size="15" font-weight="700" fill="#fff">Commit to feature/reservation</text>
  <rect x="354" y="92" width="822" height="526" rx="14" fill="#fff" stroke="#d9e1ea" stroke-width="2"/>
  <text x="384" y="134" font-family="Segoe UI,Arial" font-size="23" font-weight="700" fill="#183b66">Diff preview</text>
  <rect x="384" y="157" width="762" height="242" rx="10" fill="#fbfcfe" stroke="#e0e6ed"/>
  <rect x="384" y="157" width="52" height="242" rx="10" fill="#f5f7fa"/>
  <text x="410" y="196" text-anchor="middle" font-family="Consolas,monospace" font-size="16" fill="#8b98a8">41</text>
  <text x="410" y="231" text-anchor="middle" font-family="Consolas,monospace" font-size="16" fill="#8b98a8">42</text>
  <text x="410" y="266" text-anchor="middle" font-family="Consolas,monospace" font-size="16" fill="#8b98a8">43</text>
  <text x="410" y="301" text-anchor="middle" font-family="Consolas,monospace" font-size="16" fill="#8b98a8">44</text>
  <rect x="436" y="208" width="710" height="35" fill="#e9f8ee"/>
  <text x="456" y="197" font-family="Consolas,monospace" font-size="17" fill="#37475a">if (repository.HasOverlap(...))</text>
  <text x="456" y="232" font-family="Consolas,monospace" font-size="17" fill="#116329">+ return Result.Fail("OverlappingReservation");</text>
  <text x="456" y="267" font-family="Consolas,monospace" font-size="17" fill="#37475a">repository.Add(reservation);</text>
  <text x="456" y="302" font-family="Consolas,monospace" font-size="17" fill="#37475a">return Result.Ok();</text>
  <text x="384" y="447" font-family="Segoe UI,Arial" font-size="20" font-weight="700" fill="#183b66">Posle commit-a</text>
  <rect x="384" y="470" width="220" height="92" rx="12" fill="#f7fbff" stroke="#9fc5f8" stroke-width="2"/>
  <text x="494" y="504" text-anchor="middle" font-family="Segoe UI,Arial" font-size="17" font-weight="700" fill="#254b78">History</text>
  <text x="494" y="534" text-anchor="middle" font-family="Segoe UI,Arial" font-size="14" fill="#65758a">proveriti novi commit</text>
  <path d="M620 516H698" stroke="#8da2ba" stroke-width="3"/><path d="m690 507 12 9-12 9" fill="none" stroke="#8da2ba" stroke-width="3"/>
  <rect x="716" y="470" width="220" height="92" rx="12" fill="#f7fbff" stroke="#9fc5f8" stroke-width="2"/>
  <text x="826" y="504" text-anchor="middle" font-family="Segoe UI,Arial" font-size="17" font-weight="700" fill="#254b78">Push origin</text>
  <text x="826" y="534" text-anchor="middle" font-family="Segoe UI,Arial" font-size="14" fill="#65758a">objaviti commit-e</text>
  <path d="M952 516H1030" stroke="#8da2ba" stroke-width="3"/><path d="m1022 507 12 9-12 9" fill="none" stroke="#8da2ba" stroke-width="3"/>
  <rect x="1046" y="470" width="100" height="92" rx="12" fill="#ecfdf3" stroke="#71c69b" stroke-width="2"/>
  <text x="1096" y="506" text-anchor="middle" font-family="Segoe UI,Arial" font-size="16" font-weight="700" fill="#17643e">Remote</text>
  <text x="1096" y="534" text-anchor="middle" font-family="Segoe UI,Arial" font-size="13" fill="#4b765f">ažuriran</text>
</svg>